<svg xmlns="http://www.w3.org/2000/svg" viewBox="0 0 64 64" fill="none" role="img" aria-label="Flare">
  <circle cx="32" cy="32" r="32" fill="#E62058"/>
  <!-- Three-part Flare F glyph (white on Amaranth) -->
  <path fill="#FFFFFF" d="M18 20c0-1.7 1.4-3 3-3h24.2c1.2 0 1.9 1.4 1.2 2.4L41.8 27.2c-.4.5-1 .8-1.6.8H21c-1.7 0-3-1.3-3-3V20z"/>
  <path fill="#FFFFFF" d="M18 33.5c0-1.7 1.4-3 3-3h18.5c1.2 0 1.9 1.4 1.2 2.4l-3.8 5.6c-.4.5-1 .8-1.6.8H21c-1.7 0-3-1.3-3-3v-2.8z"/>
  <circle cx="21.2" cy="47.5" r="4.2" fill="#FFFFFF"/>
</svg>
